<svg width="28" height="28" viewBox="0 0 28 28" fill="none" xmlns="http://www.w3.org/2000/svg">
<path fill-rule="evenodd" clip-rule="evenodd" d="M9.67533 2.05786C9.56543 1.64795 9.29718 1.29848 8.92961 1.08633C8.56204 0.874193 8.12525 0.816758 7.71533 0.926664C7.30541 1.03657 6.95594 1.30481 6.7438 1.67238C6.53166 2.03996 6.47423 2.47675 6.58413 2.88666L6.99853 4.43226C7.10844 4.84218 7.37668 5.19165 7.74425 5.40379C8.11182 5.61593 8.54861 5.67337 8.95853 5.56346C9.36845 5.45356 9.71792 5.18531 9.93006 4.81774C10.1422 4.45017 10.1996 4.01338 10.0897 3.60346L9.67373 2.05786H9.67533ZM2.88653 6.58426C2.68321 6.52884 2.47094 6.51412 2.26191 6.54097C2.05289 6.56781 1.85122 6.63569 1.6685 6.74069C1.48578 6.8457 1.32561 6.98577 1.19717 7.15285C1.06874 7.31994 0.974583 7.51075 0.920106 7.71433C0.865628 7.91791 0.851905 8.13025 0.879725 8.33915C0.907544 8.54804 0.976358 8.74939 1.08221 8.93162C1.18807 9.11384 1.32888 9.27337 1.49657 9.40102C1.66425 9.52867 1.8555 9.62194 2.05933 9.67546L3.60493 10.0899C4.01411 10.1973 4.44919 10.1383 4.815 9.92584C5.18082 9.71334 5.44758 9.36461 5.55694 8.95594C5.6663 8.54726 5.60936 8.11191 5.39856 7.74511C5.18777 7.37832 4.84029 7.10993 4.43213 6.99866L2.88653 6.58266V6.58426ZM16.9889 5.67386C17.1375 5.52521 17.2553 5.34875 17.3357 5.15456C17.416 4.96037 17.4573 4.75226 17.4573 4.5421C17.4572 4.33194 17.4157 4.12386 17.3352 3.92972C17.2547 3.73559 17.1368 3.55922 16.9881 3.41066C16.8395 3.26211 16.663 3.1443 16.4688 3.06394C16.2746 2.98359 16.0665 2.94227 15.8564 2.94234C15.6462 2.94241 15.4381 2.98388 15.244 3.06437C15.0499 3.14487 14.8735 3.26281 14.7249 3.41146L13.5937 4.54266C13.4451 4.69132 13.3272 4.8678 13.2467 5.06203C13.1663 5.25626 13.1248 5.46443 13.1248 5.67466C13.1248 5.8849 13.1663 6.09307 13.2467 6.2873C13.3272 6.48153 13.4451 6.65801 13.5937 6.80666C13.7424 6.95532 13.9189 7.07324 14.1131 7.15369C14.3073 7.23415 14.5155 7.27555 14.7257 7.27555C14.936 7.27555 15.1441 7.23415 15.3384 7.15369C15.5326 7.07324 15.7091 6.95532 15.8577 6.80666L16.9889 5.67386ZM5.67533 16.9891L6.80653 15.8579C7.10697 15.5579 7.27592 15.1508 7.27622 14.7262C7.27652 14.3016 7.10814 13.8943 6.80813 13.5939C6.50812 13.2934 6.10104 13.1245 5.67646 13.1242C5.25188 13.1239 4.84457 13.2923 4.54413 13.5923L3.41133 14.7235C3.11111 15.0237 2.94244 15.4309 2.94244 15.8555C2.94244 16.28 3.11111 16.6872 3.41133 16.9875C3.71156 17.2877 4.11875 17.4564 4.54333 17.4564C4.96791 17.4564 5.37511 17.2877 5.67533 16.9875V16.9891ZM10.7953 8.71546C10.5046 8.59908 10.186 8.57059 9.87923 8.63352C9.57243 8.69646 9.29084 8.84805 9.06938 9.06951C8.84792 9.29097 8.69633 9.57256 8.63339 9.87937C8.57045 10.1862 8.59895 10.5047 8.71533 10.7955L15.1153 26.7955C15.23 27.0818 15.425 27.3289 15.6769 27.507C15.9287 27.6851 16.2267 27.7866 16.5349 27.7993C16.8431 27.812 17.1484 27.7353 17.414 27.5785C17.6797 27.4217 17.8943 27.1914 18.0321 26.9155L20.2401 22.5011L25.0689 27.3331C25.3692 27.6331 25.7763 27.8015 26.2007 27.8014C26.6251 27.8012 27.0321 27.6325 27.3321 27.3323C27.6321 27.032 27.8006 26.6249 27.8005 26.2005C27.8003 25.7761 27.6316 25.3691 27.3313 25.0691L22.5009 20.2371L26.9169 18.0307C27.1924 17.8925 27.4221 17.6778 27.5784 17.4122C27.7348 17.1467 27.8111 16.8416 27.7983 16.5338C27.7854 16.2259 27.684 15.9283 27.506 15.6767C27.3281 15.4251 27.0813 15.2302 26.7953 15.1155L10.7953 8.71546Z" fill="#008001"/>
</svg>
