<svg width="26" height="26" viewBox="0 0 26 26" fill="none" xmlns="http://www.w3.org/2000/svg">
<path d="M14.6002 1.8002C14.6002 1.37585 14.4316 0.968883 14.1316 0.668824C13.8315 0.368766 13.4245 0.200195 13.0002 0.200195C12.5758 0.200195 12.1689 0.368766 11.8688 0.668824C11.5688 0.968883 11.4002 1.37585 11.4002 1.8002V3.4002C11.4002 3.82454 11.5688 4.23151 11.8688 4.53157C12.1689 4.83162 12.5758 5.0002 13.0002 5.0002C13.4245 5.0002 13.8315 4.83162 14.1316 4.53157C14.4316 4.23151 14.6002 3.82454 14.6002 3.4002V1.8002ZM22.0514 6.21139C22.3428 5.90963 22.5041 5.50547 22.5005 5.08595C22.4968 4.66644 22.3286 4.26514 22.0319 3.96849C21.7353 3.67183 21.334 3.50356 20.9144 3.49992C20.4949 3.49627 20.0908 3.65754 19.789 3.94899L18.6578 5.0802C18.3663 5.38196 18.2051 5.78612 18.2087 6.20564C18.2124 6.62515 18.3806 7.02645 18.6773 7.3231C18.9739 7.61976 19.3752 7.78803 19.7948 7.79167C20.2143 7.79532 20.6184 7.63405 20.9202 7.3426L22.0514 6.21139ZM25.8002 13.0002C25.8002 13.4245 25.6316 13.8315 25.3316 14.1316C25.0315 14.4316 24.6245 14.6002 24.2002 14.6002H22.6002C22.1758 14.6002 21.7689 14.4316 21.4688 14.1316C21.1688 13.8315 21.0002 13.4245 21.0002 13.0002C21.0002 12.5758 21.1688 12.1689 21.4688 11.8688C21.7689 11.5688 22.1758 11.4002 22.6002 11.4002H24.2002C24.6245 11.4002 25.0315 11.5688 25.3316 11.8688C25.6316 12.1689 25.8002 12.5758 25.8002 13.0002ZM5.0802 7.3426C5.22779 7.49541 5.40434 7.6173 5.59955 7.70116C5.79475 7.78501 6.00471 7.82915 6.21715 7.831C6.4296 7.83284 6.64029 7.79236 6.83692 7.71191C7.03356 7.63146 7.2122 7.51266 7.36243 7.36243C7.51266 7.2122 7.63146 7.03356 7.71191 6.83692C7.79236 6.64029 7.83284 6.4296 7.831 6.21715C7.82915 6.00471 7.78501 5.79475 7.70116 5.59955C7.6173 5.40434 7.49541 5.22779 7.3426 5.0802L6.21139 3.94899C5.90963 3.65754 5.50547 3.49627 5.08595 3.49992C4.66644 3.50356 4.26514 3.67183 3.96849 3.96849C3.67183 4.26514 3.50356 4.66644 3.49992 5.08595C3.49627 5.50547 3.65754 5.90963 3.94899 6.21139L5.0802 7.3426ZM5.0002 13.0002C5.0002 13.4245 4.83162 13.8315 4.53157 14.1316C4.23151 14.4316 3.82454 14.6002 3.4002 14.6002H1.8002C1.37585 14.6002 0.968883 14.4316 0.668824 14.1316C0.368766 13.8315 0.200195 13.4245 0.200195 13.0002C0.200195 12.5758 0.368766 12.1689 0.668824 11.8688C0.968883 11.5688 1.37585 11.4002 1.8002 11.4002H3.4002C3.82454 11.4002 4.23151 11.5688 4.53157 11.8688C4.83162 12.1689 5.0002 12.5758 5.0002 13.0002ZM9.80019 22.6002V21.0002H16.2002V22.6002C16.2002 23.4489 15.8631 24.2628 15.2629 24.8629C14.6628 25.4631 13.8489 25.8002 13.0002 25.8002C12.1515 25.8002 11.3376 25.4631 10.7375 24.8629C10.1373 24.2628 9.80019 23.4489 9.80019 22.6002ZM16.2002 19.4002C16.2242 18.8562 16.533 18.3666 16.9634 18.0258C18.0077 17.2022 18.7695 16.0737 19.1428 14.7972C19.5162 13.5208 19.4826 12.1596 19.0467 10.9031C18.6109 9.64659 17.7944 8.55707 16.7107 7.78598C15.6271 7.01489 14.3302 6.60055 13.0002 6.60055C11.6702 6.60055 10.3733 7.01489 9.28964 7.78598C8.20601 8.55707 7.38951 9.64659 6.95364 10.9031C6.51778 12.1596 6.4842 13.5208 6.85756 14.7972C7.23093 16.0737 7.9927 17.2022 9.03699 18.0258C9.46899 18.3666 9.77619 18.8562 9.79859 19.4002H16.2018H16.2002Z" fill="#008001"/>
</svg>
