<svg width="18" height="16" viewBox="0 0 18 16" fill="none" xmlns="http://www.w3.org/2000/svg">
<path d="M10.6931 12.3031L9.53563 14.2319C9.4801 14.3244 9.40155 14.401 9.30763 14.4542C9.21371 14.5074 9.10762 14.5353 8.99969 14.5353C8.89176 14.5353 8.78567 14.5074 8.69175 14.4542C8.59783 14.401 8.51928 14.3244 8.46375 14.2319L7.3075 12.3031C7.2519 12.2106 7.17329 12.134 7.07931 12.0809C6.98534 12.0278 6.8792 11.9999 6.77125 12H2.125C1.95924 12 1.80027 11.9342 1.68306 11.8169C1.56585 11.6997 1.5 11.5408 1.5 11.375V1.375C1.5 1.20924 1.56585 1.05027 1.68306 0.933058C1.80027 0.815848 1.95924 0.75 2.125 0.75H15.875C16.0408 0.75 16.1997 0.815848 16.3169 0.933058C16.4342 1.05027 16.5 1.20924 16.5 1.375V11.375C16.5 11.5408 16.4342 11.6997 16.3169 11.8169C16.1997 11.9342 16.0408 12 15.875 12H11.2287C11.1209 12 11.0149 12.0279 10.921 12.0811C10.8272 12.1342 10.7487 12.2107 10.6931 12.3031V12.3031Z" stroke="#4D4D4D" stroke-width="1.2" stroke-linecap="round" stroke-linejoin="round"/>
</svg>
