<svg width="15" height="14" viewBox="0 0 15 14" fill="none" xmlns="http://www.w3.org/2000/svg">
<path d="M7.4092 11.6323L10.7856 13.7712C11.2172 14.0443 11.7527 13.6378 11.6247 13.1339L10.6496 9.29697C10.622 9.19009 10.6252 9.07761 10.6587 8.97245C10.6923 8.8673 10.7548 8.77375 10.8391 8.70255L13.8669 6.18297C14.2643 5.85202 14.0597 5.19174 13.5483 5.15854L9.59462 4.90149C9.48817 4.89394 9.38606 4.85631 9.30016 4.79298C9.21427 4.72965 9.14813 4.64323 9.10944 4.54377L7.63465 0.830533C7.59449 0.725005 7.5232 0.634175 7.43024 0.570087C7.33728 0.505999 7.22704 0.47168 7.11413 0.47168C7.00122 0.47168 6.89098 0.505999 6.79802 0.570087C6.70506 0.634175 6.63377 0.725005 6.59361 0.830533L5.11881 4.54377C5.08021 4.64333 5.01411 4.72986 4.92821 4.79329C4.84231 4.85672 4.74015 4.89443 4.63364 4.90203L0.679962 5.15907C0.169084 5.19174 -0.0365518 5.85202 0.361333 6.18297L3.38911 8.70309C3.47335 8.77424 3.53583 8.8677 3.56936 8.97275C3.60289 9.0778 3.60612 9.19017 3.57868 9.29697L2.67474 12.8554C2.52105 13.46 3.1642 13.9479 3.6815 13.6196L6.8196 11.6323C6.9078 11.5763 7.01015 11.5465 7.11467 11.5465C7.21918 11.5465 7.32153 11.5763 7.40973 11.6323H7.4092Z" fill="#CCCCCC"/>
</svg>
