<svg width="15" height="14" viewBox="0 0 15 14" fill="none" xmlns="http://www.w3.org/2000/svg">
<path d="M7.8633 11.6323L11.2397 13.7712C11.6713 14.0443 12.2068 13.6378 12.0788 13.1339L11.1037 9.29697C11.0761 9.19009 11.0793 9.07761 11.1128 8.97245C11.1464 8.8673 11.2089 8.77375 11.2932 8.70255L14.321 6.18297C14.7184 5.85202 14.5138 5.19174 14.0024 5.15854L10.0487 4.90149C9.94227 4.89394 9.84016 4.85631 9.75426 4.79298C9.66837 4.72965 9.60223 4.64323 9.56355 4.54377L8.08875 0.830533C8.04859 0.725005 7.97731 0.634175 7.88435 0.570087C7.79139 0.505999 7.68114 0.47168 7.56823 0.47168C7.45532 0.47168 7.34508 0.505999 7.25212 0.570087C7.15916 0.634175 7.08787 0.725005 7.04771 0.830533L5.57292 4.54377C5.53431 4.64333 5.46821 4.72986 5.38231 4.79329C5.29641 4.85672 5.19425 4.89443 5.08774 4.90203L1.13406 5.15907C0.623186 5.19174 0.41755 5.85202 0.815435 6.18297L3.84321 8.70309C3.92746 8.77424 3.98993 8.8677 4.02346 8.97275C4.05699 9.0778 4.06022 9.19017 4.03279 9.29697L3.12884 12.8554C2.97515 13.46 3.6183 13.9479 4.1356 13.6196L7.2737 11.6323C7.3619 11.5763 7.46425 11.5465 7.56877 11.5465C7.67328 11.5465 7.77563 11.5763 7.86383 11.6323H7.8633Z" fill="#FF8A00"/>
</svg>
