<svg width="26" height="26" viewBox="0 0 26 26" fill="none" xmlns="http://www.w3.org/2000/svg">
<path fill-rule="evenodd" clip-rule="evenodd" d="M25.8002 13.0002C25.8002 16.395 24.4516 19.6507 22.0512 22.0512C19.6507 24.4516 16.395 25.8002 13.0002 25.8002C9.60542 25.8002 6.34969 24.4516 3.94923 22.0512C1.54876 19.6507 0.200195 16.395 0.200195 13.0002C0.200195 9.60542 1.54876 6.34969 3.94923 3.94923C6.34969 1.54876 9.60542 0.200195 13.0002 0.200195C16.395 0.200195 19.6507 1.54876 22.0512 3.94923C24.4516 6.34969 25.8002 9.60542 25.8002 13.0002ZM22.6002 13.0002C22.6002 14.589 22.2146 16.0866 21.5314 17.4066L19.093 14.9666C19.4581 13.8365 19.5013 12.6271 19.2178 11.4738L21.717 8.9746C22.2834 10.1986 22.6002 11.5602 22.6002 13.0002ZM14.3362 19.261L16.8642 21.789C15.6466 22.3251 14.3306 22.6014 13.0002 22.6002C11.6101 22.6019 10.2363 22.3005 8.9746 21.717L11.4738 19.2178C12.4125 19.4478 13.391 19.4626 14.3362 19.261ZM6.85299 14.7874C6.53813 13.7032 6.5155 12.5551 6.7874 11.4594L6.6594 11.5874L4.21139 9.13459C3.67508 10.3527 3.3988 11.6693 3.4002 13.0002C3.4002 14.5266 3.75699 15.9698 4.39059 17.2514L6.85459 14.7874H6.85299ZM8.59379 4.46739C9.95575 3.76342 11.4671 3.39739 13.0002 3.4002C14.5266 3.4002 15.9698 3.75699 17.2514 4.39059L14.7874 6.85459C13.559 6.4968 12.2516 6.51519 11.0338 6.90739L8.59379 4.469V4.46739ZM16.2002 13.0002C16.2002 13.8489 15.8631 14.6628 15.2629 15.2629C14.6628 15.8631 13.8489 16.2002 13.0002 16.2002C12.1515 16.2002 11.3376 15.8631 10.7375 15.2629C10.1373 14.6628 9.80019 13.8489 9.80019 13.0002C9.80019 12.1515 10.1373 11.3376 10.7375 10.7375C11.3376 10.1373 12.1515 9.80019 13.0002 9.80019C13.8489 9.80019 14.6628 10.1373 15.2629 10.7375C15.8631 11.3376 16.2002 12.1515 16.2002 13.0002Z" fill="#008001"/>
</svg>
